<svg width="36" height="36" viewBox="0 0 36 36" fill="none" xmlns="http://www.w3.org/2000/svg">
<path fill-rule="evenodd" clip-rule="evenodd" d="M15.4197 21.2116L15.4021 21.1987L25.6362 12.0228C26.0853 11.6268 25.5381 11.4336 24.9419 11.7929L12.3116 19.7097L6.85607 18.018C5.67791 17.6595 5.66945 16.8552 7.12058 16.2769L28.3797 8.13231C29.3507 7.69433 30.2878 8.36401 29.9171 9.84053L26.2967 26.7913C26.0439 27.9959 25.3114 28.284 24.2964 27.7276L18.78 23.6782L16.1269 26.2414C16.1186 26.2494 16.1103 26.2575 16.102 26.2655C15.8055 26.5523 15.5602 26.7896 15.0234 26.7896L15.399 21.1992L15.4197 21.2116Z" fill="#5B5B5B"/>
</svg>
